<svg width="32" height="33" viewBox="0 0 32 33" fill="none" xmlns="http://www.w3.org/2000/svg">
<path d="M8 29.8334H28V27.1667H8.016C7.4 27.1507 6.66667 26.9067 6.66667 25.8334C6.66667 24.76 7.4 24.516 8.016 24.5H28V5.83335C28 4.36269 26.804 3.16669 25.3333 3.16669H8C6.392 3.16669 4 4.23202 4 7.16669V25.8334C4 28.768 6.392 29.8334 8 29.8334ZM6.66667 11.1667V7.16669C6.66667 6.09335 7.4 5.84935 8 5.83335H25.3333V21.8334H6.66667V11.1667Z" fill="white"/>
<path d="M10.6667 8.5H22.6667V11.1667H10.6667V8.5Z" fill="white"/>
</svg>
