<svg width="32" height="33" viewBox="0 0 32 33" fill="none" xmlns="http://www.w3.org/2000/svg">
<path d="M13.3333 7.61108H21.3333V9.38886H13.3333V7.61108Z" fill="#8F8F8F"/>
<path d="M13.3333 11.1666H21.3333V12.9444H13.3333V11.1666Z" fill="#8F8F8F"/>
<path d="M13.3333 14.7222H21.3333V16.4999H13.3333V14.7222Z" fill="#8F8F8F"/>
<path d="M13.3333 18.2778H21.3333V20.0556H13.3333V18.2778Z" fill="#8F8F8F"/>
<path d="M13.3333 21.8334H21.3333V23.6112H13.3333V21.8334Z" fill="#8F8F8F"/>
<path d="M9.77777 7.61108H11.5555V9.38886H9.77777V7.61108Z" fill="#8F8F8F"/>
<path d="M9.77777 11.1666H11.5555V12.9444H9.77777V11.1666Z" fill="#8F8F8F"/>
<path d="M9.77777 14.7222H11.5555V16.4999H9.77777V14.7222Z" fill="#8F8F8F"/>
<path d="M9.77777 18.2778H11.5555V20.0556H9.77777V18.2778Z" fill="#8F8F8F"/>
<path d="M9.77777 21.8334H11.5555V23.6112H9.77777V21.8334Z" fill="#8F8F8F"/>
<path d="M24.8889 2.27783H7.11109C6.63959 2.27783 6.18741 2.46513 5.85401 2.79853C5.52061 3.13193 5.33331 3.58411 5.33331 4.05561V28.9445C5.33331 29.416 5.52061 29.8682 5.85401 30.2016C6.18741 30.535 6.63959 30.7223 7.11109 30.7223H24.8889C25.3604 30.7223 25.8125 30.535 26.1459 30.2016C26.4793 29.8682 26.6666 29.416 26.6666 28.9445V4.05561C26.6666 3.58411 26.4793 3.13193 26.1459 2.79853C25.8125 2.46513 25.3604 2.27783 24.8889 2.27783ZM24.8889 28.9445H7.11109V4.05561H24.8889V28.9445Z" fill="#8F8F8F"/>
</svg>
