<svg width="32" height="33" viewBox="0 0 32 33" fill="none" xmlns="http://www.w3.org/2000/svg">
<path d="M27.5 25.3438C28.1875 25.6875 28.8073 26.1094 29.3594 26.6094C29.9115 27.1094 30.3802 27.6667 30.7656 28.2812C31.151 28.8958 31.4531 29.5625 31.6719 30.2812C31.8906 31 32 31.7396 32 32.5H30C30 31.6771 29.8438 30.901 29.5312 30.1719C29.2188 29.4427 28.7917 28.8073 28.25 28.2656C27.7083 27.724 27.0677 27.2917 26.3281 26.9688C25.5885 26.6458 24.8125 26.4896 24 26.5C23.1667 26.5 22.3906 26.6562 21.6719 26.9688C20.9531 27.2812 20.3177 27.7083 19.7656 28.25C19.2135 28.7917 18.7812 29.4323 18.4688 30.1719C18.1562 30.9115 18 31.6875 18 32.5H16C16 31.7396 16.1042 31 16.3125 30.2812C16.5208 29.5625 16.8229 28.8958 17.2188 28.2812C17.6146 27.6667 18.0885 27.1094 18.6406 26.6094C19.1927 26.1094 19.8125 25.6875 20.5 25.3438C19.7188 24.7812 19.1094 24.0781 18.6719 23.2344C18.2344 22.3906 18.0104 21.4792 18 20.5C18 19.6771 18.1562 18.901 18.4688 18.1719C18.7812 17.4427 19.2083 16.8073 19.75 16.2656C20.2917 15.724 20.9271 15.2917 21.6562 14.9688C22.3854 14.6458 23.1667 14.4896 24 14.5C24.8229 14.5 25.599 14.6562 26.3281 14.9688C27.0573 15.2812 27.6927 15.7083 28.2344 16.25C28.776 16.7917 29.2083 17.4323 29.5312 18.1719C29.8542 18.9115 30.0104 19.6875 30 20.5C30 21.4792 29.7812 22.3906 29.3438 23.2344C28.9062 24.0781 28.2917 24.7812 27.5 25.3438ZM24 24.5C24.5521 24.5 25.0677 24.3958 25.5469 24.1875C26.026 23.9792 26.4531 23.6927 26.8281 23.3281C27.2031 22.9635 27.4896 22.5417 27.6875 22.0625C27.8854 21.5833 27.9896 21.0625 28 20.5C28 19.9479 27.8958 19.4323 27.6875 18.9531C27.4792 18.474 27.1927 18.0469 26.8281 17.6719C26.4635 17.2969 26.0417 17.0104 25.5625 16.8125C25.0833 16.6146 24.5625 16.5104 24 16.5C23.4479 16.5 22.9323 16.6042 22.4531 16.8125C21.974 17.0208 21.5469 17.3073 21.1719 17.6719C20.7969 18.0365 20.5104 18.4583 20.3125 18.9375C20.1146 19.4167 20.0104 19.9375 20 20.5C20 21.0521 20.1042 21.5677 20.3125 22.0469C20.5208 22.526 20.8073 22.9531 21.1719 23.3281C21.5365 23.7031 21.9583 23.9896 22.4375 24.1875C22.9167 24.3854 23.4375 24.4896 24 24.5ZM16 25.75C15.6667 26.1354 15.3646 26.5365 15.0938 26.9531C14.8229 27.3698 14.5833 27.8177 14.375 28.2969C13.8229 27.724 13.1562 27.2812 12.375 26.9688C11.5938 26.6562 10.8021 26.5 10 26.5H4V6.5H2V28.5H14.2969C14.151 28.8229 14.0312 29.151 13.9375 29.4844C13.8438 29.8177 13.7656 30.1562 13.7031 30.5H0V4.5H4V2.5H10C10.9167 2.5 11.7969 2.64062 12.6406 2.92188C13.4844 3.20312 14.2708 3.625 15 4.1875C15.7188 3.625 16.5 3.20312 17.3438 2.92188C18.1875 2.64062 19.0729 2.5 20 2.5H26V4.5H30V14.5C29.3958 13.9062 28.7292 13.4115 28 13.0156V6.5H26V12.2656C25.6667 12.1719 25.3333 12.1042 25 12.0625C24.6667 12.0208 24.3333 12 24 12V4.5H20C19.2708 4.5 18.5625 4.625 17.875 4.875C17.1875 5.125 16.5625 5.49479 16 5.98438V25.75ZM14 25.5469V5.98438C13.4375 5.50521 12.8125 5.14062 12.125 4.89062C11.4375 4.64062 10.7292 4.51042 10 4.5H6V24.5H10C10.6979 24.5 11.3854 24.5885 12.0625 24.7656C12.7396 24.9427 13.3854 25.2031 14 25.5469Z" fill="#8F8F8F"/>
</svg>
